<?xml version="1.0" encoding="utf-8"?>
<!-- Generator: Adobe Illustrator 22.0.1, SVG Export Plug-In . SVG Version: 6.00 Build 0)  -->
<svg version="1.1" id="Layer_1" xmlns="http://www.w3.org/2000/svg" xmlns:xlink="http://www.w3.org/1999/xlink" x="0px" y="0px"
	 viewBox="0 0 41 41" enable-background="new 0 0 41 41" xml:space="preserve">
<path id="Blue_1_" display="none" fill="#3E5B99" d="M38.7,41c1.2,0,2.3-1,2.3-2.3V2.3C41,1,39.9,0,38.7,0H2.3C1,0,0,1,0,2.3v36.4
	C0,39.9,1,41,2.3,41H38.7z"/>
<path id="f" display="none" fill="#FFFFFF" d="M28.3,41V25.1h5.3l0.8-6.2h-6.1V15c0-1.8,0.5-3,3.1-3h3.3V6.4
	c-0.6-0.1-2.5-0.2-4.8-0.2c-4.7,0-8,2.9-8,8.2V19h-5.3v6.2h5.3V41H28.3z"/>
<path fill="#E7E7E8" d="M35.875,0H5.125C2.296,0,0,2.296,0,5.125v30.75C0,38.704,2.296,41,5.125,41h30.75
	C38.704,41,41,38.704,41,35.875V5.125C41,2.296,38.704,0,35.875,0z M12.2,34.9H6.1V15.4h6.1V34.9z M9.1,12.6c-1.9,0-3.5-1.6-3.5-3.5
	c0-1.9,1.6-3.5,3.5-3.5c1.9,0,3.5,1.6,3.5,3.5C12.6,11,11,12.6,9.1,12.6z M34.9,34.8h-6.1v-9.5c0-2.3,0-5.2-3.2-5.2
	c-3.2,0-3.6,2.5-3.6,5v9.7h-6V15.4h5.8V18h0.1c0.8-1.5,2.8-3.2,5.7-3.2c6.2,0,7.3,4,7.3,9.3V34.8z"/>
<path id="XMLID_44_" display="none" fill="#5FA9DD" d="M41,7.8c-1.5,0.7-3.1,1.1-4.8,1.3c1.7-1,3.1-2.7,3.7-4.6
	c-1.6,1-3.4,1.7-5.3,2c-1.5-1.6-3.7-2.7-6.1-2.7c-4.6,0-8.4,3.8-8.4,8.4c0,0.7,0.1,1.3,0.2,1.9c-7-0.4-13.2-3.7-17.3-8.8
	C2.1,6.6,1.7,8.1,1.7,9.6c0,2.9,1.5,5.5,3.7,7c-1.4,0-2.7-0.4-3.8-1.1v0.1c0,4.1,2.9,7.5,6.7,8.2c-0.7,0.2-1.4,0.3-2.2,0.3
	c-0.5,0-1.1-0.1-1.6-0.2c1.1,3.3,4.2,5.8,7.8,5.8C9.6,32.1,5.9,33.5,2,33.5c-0.7,0-1.3,0-2-0.1c3.7,2.4,8.1,3.8,12.9,3.8
	c15.5,0,23.9-12.8,23.9-23.9c0-0.4,0-0.7,0-1.1C38.4,10.9,39.8,9.5,41,7.8z"/>
</svg>
